<?xml version="1.0"?>
<svg xmlns="http://www.w3.org/2000/svg" xmlns:xlink="http://www.w3.org/1999/xlink" version="1.1" id="Capa_1" x="0px" y="0px" viewBox="0 0 512 512" style="enable-background:new 0 0 512 512;" xml:space="preserve" width="512px" height="512px"><g><g>
	<g>
		<path d="M470.198,172.968L275.203,6.973C269.813,2.476,263.002,0,256,0c-7.002,0-13.828,2.476-19.203,6.973L41.817,172.968    c-12.786,10.629-14.445,29.554-3.838,42.245c10.569,12.72,29.574,14.35,42.23,3.838L256,70.065L431.791,219.05    c12.724,10.58,31.615,8.931,42.245-3.852C484.639,202.503,482.941,183.588,470.198,172.968z" data-original="#000000" class="active-path" data-old_color="#000000" fill="#34FE56"/>
	</g>
</g><g>
	<g>
		<path d="M435.995,361.004h-15v-29.999h-74.998c-8.291,0-15-6.709-15-15c0-8.291,6.709-15,15-15h74.998v-29.999h-44.999    c-8.291,0-15-6.709-15-15s6.709-15,15-15h35.307L256,109.395L100.693,241.008h35.311c8.291,0,15,6.709,15,15s-6.709,15-15,15    H91.005v29.999h74.998c8.291,0,15,6.709,15,15c0,8.291-6.709,15-15,15H91.005v29.999h-15c-8.291,0-15,6.709-15,15    c0,8.291,6.709,15,15,15c73.462,0,223.724,0,359.99,0c8.291,0,15-6.709,15-15C450.994,367.713,444.285,361.004,435.995,361.004z     M256,331.005c-8.284,0-15-6.716-15-15c0-8.286,6.716-15,15-15c8.284,0,15,6.714,15,15C271,324.289,264.283,331.005,256,331.005z     M256,271.007c-33.09,0-59.998-26.908-59.998-59.998S222.91,151.011,256,151.011s59.998,26.908,59.998,59.998    S289.09,271.007,256,271.007z" data-original="#000000" class="active-path" data-old_color="#000000" fill="#34FE56"/>
	</g>
</g><g>
	<g>
		<path d="M256,181.01c-16.538,0-29.999,13.462-29.999,29.999c0,16.538,13.462,29.999,29.999,29.999s29.999-13.462,29.999-29.999    C285.999,194.471,272.538,181.01,256,181.01z" data-original="#000000" class="active-path" data-old_color="#000000" fill="#34FE56"/>
	</g>
</g><g>
	<g>
		<path d="M323.721,421.003l-37.722,29.34v-29.34h-59.998v29.34l-37.722-29.34h-48.837l86.558,68.324V497c0,8.284,6.716,15,15,15    H271c8.284,0,15-6.716,15-15v-7.674l86.558-68.324H323.721z" data-original="#000000" class="active-path" data-old_color="#000000" fill="#34FE56"/>
	</g>
</g></g> </svg>
