<?xml version="1.0"?>
<svg xmlns="http://www.w3.org/2000/svg" xmlns:xlink="http://www.w3.org/1999/xlink" version="1.1" id="Capa_1" x="0px" y="0px" viewBox="0 0 512 512" style="enable-background:new 0 0 512 512;" xml:space="preserve" width="512px" height="512px"><g><g>
	<g>
		<path d="M467,100.042h-68v-33.21c0-8.284-6.716-15-15-15H128c-8.284,0-15,6.716-15,15v33.209H45c-24.813,0-45,20.187-45,45    v270.128c0,24.813,20.187,45,45,45h422c24.813,0,45-20.187,45-45V145.042C512,120.228,491.813,100.042,467,100.042z     M144.592,386.188c5.828-7.085,9.332-16.149,9.332-26.017v-34.566c0-6.075,4.942-11.017,11.017-11.017    c6.075,0,11.017,4.942,11.017,11.017v34.566c0,9.868,3.504,18.932,9.332,26.017H144.592z M248.66,386.188    c5.828-7.085,9.332-16.149,9.332-26.017v-34.566c0-6.075,4.942-11.017,11.017-11.017s11.017,4.942,11.017,11.017v34.566    c-0.001,9.868,3.504,18.932,9.331,26.017H248.66z M482,386.188H352.728c5.828-7.085,9.332-16.149,9.332-26.017v-69.097    c0-6.075,4.942-11.017,11.017-11.017h26.017c8.284,0,15-6.716,15-15s-6.716-15-15-15h-26.017c-22.617,0-41.017,18.4-41.017,41.017    v69.097c0,6.075-4.942,11.017-11.017,11.017s-11.017-4.942-11.017-11.017v-34.566c0-22.617-18.4-41.017-41.017-41.017    s-41.017,18.4-41.017,41.017v34.566c0,6.075-4.942,11.017-11.017,11.017c-6.075,0-11.017-4.942-11.017-11.017v-34.566    c0-22.617-18.4-41.017-41.017-41.017s-41.017,18.4-41.017,41.017v34.566c0,6.075-4.942,11.017-11.017,11.017H78.224    c-8.284,0-15,6.716-15,15H30V208.576h452V386.188z" data-original="#000000" class="active-path" data-old_color="#000000" fill="#34FE56"/>
	</g>
</g></g> </svg>
